# MagicaVoxel @ Ephtracy

# group
o 

# material
mtllib Prking_spt__handicap.mtl
usemtl palette

# normals
vn -1 0 0
vn 1 0 0
vn 0 0 1
vn 0 0 -1
vn 0 -1 0
vn 0 1 0

# texcoords
vt 0.0136719 0.5
vt 0.447266 0.5
vt 0.587891 0.5
vt 0.958984 0.5
vt 0.974609 0.5
vt 0.982422 0.5

# verts
v -1.9 -0.1 1.9
v -1.9 -0.1 -2.1
v -1.9 0 1.9
v -1.9 0 -2.1
v -1.8 0 1.4
v -1.8 0 -1.7
v -1.8 0.1 1.4
v -1.8 0.1 -1.7
v -1.7 0.1 1.4
v -1.7 0.1 -1.7
v -1.7 0.2 1.4
v -1.7 0.2 -1.7
v -1.5 0.1 1.4
v -1.5 0.1 -1.7
v -1.5 0.2 1.4
v -1.5 0.2 -1.7
v -1.4 0 1.4
v -1.4 0 -1.7
v -1.4 0.1 1.4
v -1.4 0.1 -1.7
v 2.1 -0.1 1.9
v 2.1 -0.1 1.6
v 2.1 -0.1 -1.8
v 2.1 -0.1 -2.1
v 2.1 0 1.9
v 2.1 0 1.6
v 2.1 0 -1.8
v 2.1 0 -2.1
v -1.9 -0.1 1.9
v -1.9 0 1.9
v 2.1 -0.1 1.9
v 2.1 0 1.9
v -1.8 0 1.4
v -1.8 0.1 1.4
v -1.7 0.1 1.4
v -1.7 0.2 1.4
v -1.5 0.1 1.4
v -1.5 0.2 1.4
v -1.4 0 1.4
v -1.4 0.1 1.4
v -1.8 0 -1.7
v -1.8 0.1 -1.7
v -1.7 0.1 -1.7
v -1.7 0.2 -1.7
v -1.5 0.1 -1.7
v -1.5 0.2 -1.7
v -1.4 0 -1.7
v -1.4 0.1 -1.7
v -1.9 -0.1 -2.1
v -1.9 0 -2.1
v 2.1 -0.1 -2.1
v 2.1 0 -2.1
v -1.9 -0.1 1.9
v 2.1 -0.1 1.9
v -1.8 -0.1 1.8
v 2 -0.1 1.8
v 2 -0.1 1.6
v 2.1 -0.1 1.6
v -0.1 -0.1 0.7
v 1.5 -0.1 0.7
v 1.4 -0.1 0.5
v 1.5 -0.1 0.5
v 0.9 -0.1 0.4
v 1.2 -0.1 0.4
v 0.8 -0.1 0.3
v 0.9 -0.1 0.3
v 1.2 -0.1 0.3
v 1.3 -0.1 0.3
v 0.2 -0.1 0.2
v 0.8 -0.1 0.2
v 0.9 -0.1 0.2
v 1.1 -0.1 0.2
v 1.2 -0.1 0.2
v 1.3 -0.1 0.2
v 1.4 -0.1 0.2
v 0.5 -0.1 0.1
v 0.7 -0.1 0.1
v 0.8 -0.1 0.1
v 1 -0.1 0.1
v 0.2 -0.1 -0.1
v 0.5 -0.1 -0.1
v 0.7 -0.1 -0.2
v 0.8 -0.1 -0.2
v 1.2 -0.1 -0.3
v 1.3 -0.1 -0.3
v 1.4 -0.1 -0.3
v 1 -0.1 -0.4
v 1.1 -0.1 -0.4
v 1.2 -0.1 -0.4
v 1.3 -0.1 -0.4
v 1.1 -0.1 -0.5
v 1.2 -0.1 -0.5
v 1.3 -0.1 -0.5
v 1.2 -0.1 -0.6
v 1.3 -0.1 -0.6
v 1.4 -0.1 -0.7
v 1.5 -0.1 -0.7
v -0.1 -0.1 -0.9
v 1.5 -0.1 -0.9
v 2 -0.1 -1.8
v 2.1 -0.1 -1.8
v -1.8 -0.1 -2
v 2 -0.1 -2
v -1.9 -0.1 -2.1
v 2.1 -0.1 -2.1
v -1.9 0 1.9
v 2.1 0 1.9
v -1.8 0 1.8
v 2 0 1.8
v 2 0 1.6
v 2.1 0 1.6
v -1.8 0 1.4
v -1.4 0 1.4
v -0.1 0 0.7
v 1.5 0 0.7
v 1.4 0 0.5
v 1.5 0 0.5
v 0.9 0 0.4
v 1.2 0 0.4
v 0.8 0 0.3
v 0.9 0 0.3
v 1.2 0 0.3
v 1.3 0 0.3
v 0.2 0 0.2
v 0.8 0 0.2
v 0.9 0 0.2
v 1.1 0 0.2
v 1.2 0 0.2
v 1.3 0 0.2
v 1.4 0 0.2
v 0.5 0 0.1
v 0.7 0 0.1
v 0.8 0 0.1
v 1 0 0.1
v 0.2 0 -0.1
v 0.5 0 -0.1
v 0.7 0 -0.2
v 0.8 0 -0.2
v 1.2 0 -0.3
v 1.3 0 -0.3
v 1.4 0 -0.3
v 1 0 -0.4
v 1.1 0 -0.4
v 1.2 0 -0.4
v 1.3 0 -0.4
v 1.1 0 -0.5
v 1.2 0 -0.5
v 1.3 0 -0.5
v 1.2 0 -0.6
v 1.3 0 -0.6
v 1.4 0 -0.7
v 1.5 0 -0.7
v -0.1 0 -0.9
v 1.5 0 -0.9
v -1.8 0 -1.7
v -1.4 0 -1.7
v 2 0 -1.8
v 2.1 0 -1.8
v -1.8 0 -2
v 2 0 -2
v -1.9 0 -2.1
v 2.1 0 -2.1
v -1.8 0.1 1.4
v -1.7 0.1 1.4
v -1.5 0.1 1.4
v -1.4 0.1 1.4
v -1.8 0.1 -1.7
v -1.7 0.1 -1.7
v -1.5 0.1 -1.7
v -1.4 0.1 -1.7
v -1.7 0.2 1.4
v -1.5 0.2 1.4
v -1.7 0.2 -1.7
v -1.5 0.2 -1.7

# faces
f 3/1/1 2/1/1 1/1/1
f 4/1/1 2/1/1 3/1/1
f 7/5/1 6/5/1 5/5/1
f 8/5/1 6/5/1 7/5/1
f 11/5/1 10/5/1 9/5/1
f 12/5/1 10/5/1 11/5/1
f 13/5/2 14/5/2 15/5/2
f 15/5/2 14/5/2 16/5/2
f 17/5/2 18/5/2 19/5/2
f 19/5/2 18/5/2 20/5/2
f 21/1/2 22/1/2 25/1/2
f 22/6/2 23/6/2 26/6/2
f 25/1/2 22/1/2 26/1/2
f 23/1/2 24/1/2 27/1/2
f 26/6/2 23/6/2 27/6/2
f 27/1/2 24/1/2 28/1/2
f 31/1/3 30/1/3 29/1/3
f 32/1/3 30/1/3 31/1/3
f 35/5/3 34/5/3 33/5/3
f 37/5/3 35/5/3 33/5/3
f 37/5/3 36/5/3 35/5/3
f 38/5/3 36/5/3 37/5/3
f 39/5/3 37/5/3 33/5/3
f 40/5/3 37/5/3 39/5/3
f 41/5/4 42/5/4 43/5/4
f 41/5/4 43/5/4 45/5/4
f 43/5/4 44/5/4 45/5/4
f 45/5/4 44/5/4 46/5/4
f 41/5/4 45/5/4 47/5/4
f 47/5/4 45/5/4 48/5/4
f 49/1/4 50/1/4 51/1/4
f 51/1/4 50/1/4 52/1/4
f 55/1/5 54/1/5 53/1/5
f 56/1/5 54/1/5 55/1/5
f 57/6/5 56/6/5 55/6/5
f 57/1/5 54/1/5 56/1/5
f 58/1/5 54/1/5 57/1/5
f 59/6/5 57/6/5 55/6/5
f 59/6/5 58/6/5 57/6/5
f 60/6/5 58/6/5 59/6/5
f 61/2/5 60/2/5 59/2/5
f 62/6/5 58/6/5 60/6/5
f 62/2/5 60/2/5 61/2/5
f 63/2/5 61/2/5 59/2/5
f 64/2/5 61/2/5 63/2/5
f 65/2/5 63/2/5 59/2/5
f 66/4/5 64/4/5 63/4/5
f 66/2/5 63/2/5 65/2/5
f 67/2/5 61/2/5 64/2/5
f 67/4/5 64/4/5 66/4/5
f 68/2/5 61/2/5 67/2/5
f 69/2/5 65/2/5 59/2/5
f 70/4/5 66/4/5 65/4/5
f 70/2/5 65/2/5 69/2/5
f 71/2/5 67/2/5 66/2/5
f 71/4/5 66/4/5 70/4/5
f 72/2/5 67/2/5 71/2/5
f 73/4/5 68/4/5 67/4/5
f 73/2/5 67/2/5 72/2/5
f 74/2/5 61/2/5 68/2/5
f 74/4/5 68/4/5 73/4/5
f 75/3/5 62/3/5 61/3/5
f 75/2/5 61/2/5 74/2/5
f 76/4/5 70/4/5 69/4/5
f 76/4/5 72/4/5 71/4/5
f 76/4/5 71/4/5 70/4/5
f 77/4/5 72/4/5 76/4/5
f 78/4/5 72/4/5 77/4/5
f 79/4/5 72/4/5 78/4/5
f 80/2/5 69/2/5 59/2/5
f 80/4/5 76/4/5 69/4/5
f 81/2/5 77/2/5 76/2/5
f 81/4/5 76/4/5 80/4/5
f 82/4/5 78/4/5 77/4/5
f 82/2/5 77/2/5 81/2/5
f 82/2/5 81/2/5 80/2/5
f 83/2/5 79/2/5 78/2/5
f 83/4/5 78/4/5 82/4/5
f 84/2/5 74/2/5 73/2/5
f 84/2/5 73/2/5 72/2/5
f 85/4/5 75/4/5 74/4/5
f 85/2/5 74/2/5 84/2/5
f 86/3/5 62/3/5 75/3/5
f 86/4/5 75/4/5 85/4/5
f 87/2/5 79/2/5 83/2/5
f 87/4/5 72/4/5 79/4/5
f 87/2/5 83/2/5 82/2/5
f 88/2/5 84/2/5 72/2/5
f 88/4/5 72/4/5 87/4/5
f 89/4/5 85/4/5 84/4/5
f 89/2/5 84/2/5 88/2/5
f 90/2/5 86/2/5 85/2/5
f 90/4/5 85/4/5 89/4/5
f 91/4/5 89/4/5 88/4/5
f 91/2/5 88/2/5 87/2/5
f 92/2/5 90/2/5 89/2/5
f 92/4/5 89/4/5 91/4/5
f 93/2/5 86/2/5 90/2/5
f 93/2/5 90/2/5 92/2/5
f 94/2/5 92/2/5 91/2/5
f 94/4/5 93/4/5 92/4/5
f 95/2/5 86/2/5 93/2/5
f 95/4/5 93/4/5 94/4/5
f 96/3/5 62/3/5 86/3/5
f 96/2/5 86/2/5 95/2/5
f 96/2/5 95/2/5 94/2/5
f 97/6/5 58/6/5 62/6/5
f 97/3/5 62/3/5 96/3/5
f 98/6/5 59/6/5 55/6/5
f 98/2/5 96/2/5 94/2/5
f 98/2/5 97/2/5 96/2/5
f 98/2/5 87/2/5 82/2/5
f 98/2/5 91/2/5 87/2/5
f 98/2/5 80/2/5 59/2/5
f 98/2/5 94/2/5 91/2/5
f 98/2/5 82/2/5 80/2/5
f 99/6/5 58/6/5 97/6/5
f 99/2/5 97/2/5 98/2/5
f 100/6/5 99/6/5 98/6/5
f 100/6/5 58/6/5 99/6/5
f 101/6/5 58/6/5 100/6/5
f 102/1/5 55/1/5 53/1/5
f 102/6/5 98/6/5 55/6/5
f 102/6/5 100/6/5 98/6/5
f 103/1/5 101/1/5 100/1/5
f 103/6/5 100/6/5 102/6/5
f 104/1/5 102/1/5 53/1/5
f 104/1/5 103/1/5 102/1/5
f 105/1/5 101/1/5 103/1/5
f 105/1/5 103/1/5 104/1/5
f 106/1/6 107/1/6 108/1/6
f 108/1/6 107/1/6 109/1/6
f 108/6/6 109/6/6 110/6/6
f 109/1/6 107/1/6 110/1/6
f 110/1/6 107/1/6 111/1/6
f 106/1/6 108/1/6 112/1/6
f 108/6/6 110/6/6 112/6/6
f 110/6/6 111/6/6 112/6/6
f 112/6/6 111/6/6 113/6/6
f 113/6/6 111/6/6 114/6/6
f 114/6/6 111/6/6 115/6/6
f 114/2/6 115/2/6 116/2/6
f 115/6/6 111/6/6 117/6/6
f 116/2/6 115/2/6 117/2/6
f 114/2/6 116/2/6 118/2/6
f 118/2/6 116/2/6 119/2/6
f 114/2/6 118/2/6 120/2/6
f 118/4/6 119/4/6 121/4/6
f 120/2/6 118/2/6 121/2/6
f 119/2/6 116/2/6 122/2/6
f 121/4/6 119/4/6 122/4/6
f 122/2/6 116/2/6 123/2/6
f 114/2/6 120/2/6 124/2/6
f 120/4/6 121/4/6 125/4/6
f 124/2/6 120/2/6 125/2/6
f 121/2/6 122/2/6 126/2/6
f 125/4/6 121/4/6 126/4/6
f 126/2/6 122/2/6 127/2/6
f 122/4/6 123/4/6 128/4/6
f 127/2/6 122/2/6 128/2/6
f 123/2/6 116/2/6 129/2/6
f 128/4/6 123/4/6 129/4/6
f 116/3/6 117/3/6 130/3/6
f 129/2/6 116/2/6 130/2/6
f 124/4/6 125/4/6 131/4/6
f 126/4/6 127/4/6 131/4/6
f 125/4/6 126/4/6 131/4/6
f 131/4/6 127/4/6 132/4/6
f 132/4/6 127/4/6 133/4/6
f 133/4/6 127/4/6 134/4/6
f 114/2/6 124/2/6 135/2/6
f 124/4/6 131/4/6 135/4/6
f 131/2/6 132/2/6 136/2/6
f 135/4/6 131/4/6 136/4/6
f 132/4/6 133/4/6 137/4/6
f 136/2/6 132/2/6 137/2/6
f 135/2/6 136/2/6 137/2/6
f 133/2/6 134/2/6 138/2/6
f 137/4/6 133/4/6 138/4/6
f 128/2/6 129/2/6 139/2/6
f 127/2/6 128/2/6 139/2/6
f 129/4/6 130/4/6 140/4/6
f 139/2/6 129/2/6 140/2/6
f 130/3/6 117/3/6 141/3/6
f 140/4/6 130/4/6 141/4/6
f 138/2/6 134/2/6 142/2/6
f 134/4/6 127/4/6 142/4/6
f 137/2/6 138/2/6 142/2/6
f 127/2/6 139/2/6 143/2/6
f 142/4/6 127/4/6 143/4/6
f 139/4/6 140/4/6 144/4/6
f 143/2/6 139/2/6 144/2/6
f 140/2/6 141/2/6 145/2/6
f 144/4/6 140/4/6 145/4/6
f 143/4/6 144/4/6 146/4/6
f 142/2/6 143/2/6 146/2/6
f 144/2/6 145/2/6 147/2/6
f 146/4/6 144/4/6 147/4/6
f 145/2/6 141/2/6 148/2/6
f 147/2/6 145/2/6 148/2/6
f 146/2/6 147/2/6 149/2/6
f 147/4/6 148/4/6 149/4/6
f 148/2/6 141/2/6 150/2/6
f 149/4/6 148/4/6 150/4/6
f 141/3/6 117/3/6 151/3/6
f 150/2/6 141/2/6 151/2/6
f 149/2/6 150/2/6 151/2/6
f 117/6/6 111/6/6 152/6/6
f 151/3/6 117/3/6 152/3/6
f 113/6/6 114/6/6 153/6/6
f 149/2/6 151/2/6 153/2/6
f 151/2/6 152/2/6 153/2/6
f 137/2/6 142/2/6 153/2/6
f 142/2/6 146/2/6 153/2/6
f 114/2/6 135/2/6 153/2/6
f 146/2/6 149/2/6 153/2/6
f 135/2/6 137/2/6 153/2/6
f 152/6/6 111/6/6 154/6/6
f 153/2/6 152/2/6 154/2/6
f 106/1/6 112/1/6 155/1/6
f 113/6/6 153/6/6 156/6/6
f 153/6/6 154/6/6 156/6/6
f 154/6/6 111/6/6 157/6/6
f 155/6/6 156/6/6 157/6/6
f 156/6/6 154/6/6 157/6/6
f 157/6/6 111/6/6 158/6/6
f 106/1/6 155/1/6 159/1/6
f 155/6/6 157/6/6 159/6/6
f 157/1/6 158/1/6 160/1/6
f 159/6/6 157/6/6 160/6/6
f 106/1/6 159/1/6 161/1/6
f 159/1/6 160/1/6 161/1/6
f 160/1/6 158/1/6 162/1/6
f 161/1/6 160/1/6 162/1/6
f 163/5/6 164/5/6 167/5/6
f 167/5/6 164/5/6 168/5/6
f 165/5/6 166/5/6 169/5/6
f 169/5/6 166/5/6 170/5/6
f 171/5/6 172/5/6 173/5/6
f 173/5/6 172/5/6 174/5/6
